<svg width="46" height="22" viewBox="0 0 46 22" fill="none" xmlns="http://www.w3.org/2000/svg">
<path d="M17.2927 0C19.2612 0.229245 21.1961 0.556737 23.1219 0.898085C24.2231 1.09794 25.322 1.30472 26.4134 1.52494C28.1279 1.86608 29.8349 2.25235 31.3878 2.8284C32.0834 3.09229 32.7514 3.39039 33.3223 3.75399C33.9408 4.13337 34.4475 4.57788 34.819 5.06711C35.4962 5.9505 35.728 6.93738 35.7966 7.90768C35.8288 8.54084 35.8268 9.17945 35.6373 9.80441C35.48 10.3475 35.2004 10.883 34.7354 11.3548C34.3247 11.7713 33.7538 12.1317 33.0609 12.3639C32.3962 12.5877 31.6354 12.6943 30.8817 12.6849C29.7385 12.6922 28.6292 12.4647 27.6033 12.1661C27.5845 10.0347 27.6003 7.90286 27.5952 5.77185C27.5882 5.3862 27.6302 4.99657 27.5055 4.61618C27.4178 4.32143 27.2256 4.02438 26.855 3.82431C26.6096 3.68597 26.2911 3.60788 25.9712 3.56568C25.6476 3.52726 25.3025 3.61312 25.1022 3.7754C24.7692 4.0353 24.6818 4.38042 24.6667 4.70393C24.664 10.4101 24.67 16.1164 24.664 21.8221C22.2066 21.3356 19.7495 20.8485 17.2927 20.3608C17.2903 13.5739 17.2913 6.78707 17.2927 0V0ZM6.24848 14.4399C9.45192 13.7314 12.652 13.0157 15.8568 12.3097C15.8618 13.0953 15.8568 13.8813 15.8588 14.6677C15.8568 14.7743 15.8675 14.8814 15.8464 14.9874C13.3133 15.5483 10.785 16.1191 8.25462 16.6836C7.9038 16.7666 7.5439 16.8602 7.27339 17.0275C7.14738 17.106 7.04455 17.2221 7.11344 17.3344C7.20013 17.4669 7.41654 17.5391 7.61615 17.5935C8.17128 17.7346 8.77816 17.7547 9.36959 17.7715C10.0289 17.765 10.6912 17.7341 11.3368 17.6451C11.7733 17.5914 12.1933 17.4996 12.6093 17.402C13.6907 17.1575 14.7721 16.9114 15.8551 16.6694C15.8628 17.334 15.8565 17.9991 15.8585 18.6646C15.8551 18.7974 15.8682 18.9312 15.847 19.0634C14.517 19.2127 13.1712 19.3139 11.8193 19.3273C9.09706 19.3657 6.36844 19.1025 3.78263 18.5709C2.93481 18.4175 2.09203 18.213 1.38366 17.8767C0.993861 17.6882 0.645054 17.4512 0.467626 17.1596C0.319098 16.9125 0.329851 16.6274 0.515008 16.3891C0.693443 16.1513 1.00529 15.9636 1.34872 15.8175C2.14311 15.4747 3.01983 15.2131 3.90764 14.9801C4.67347 14.7764 5.46719 14.6177 6.24848 14.4399Z" fill="#FFAC33"/>
<path d="M32.0251 13.5451C32.7517 13.4926 33.4829 13.4802 34.2134 13.4639C36.6161 13.4695 39.0315 13.6562 41.33 14.1067C41.781 14.1923 42.2178 14.3034 42.6671 14.3926C43.4682 14.5755 44.27 14.7971 44.9112 15.157C45.2963 15.3763 45.6286 15.6721 45.633 16.0097C45.6558 16.2847 45.4569 16.5484 45.1713 16.751C44.6282 17.1314 43.9104 17.3929 43.19 17.6209C42.4228 17.8653 41.5982 18.0229 40.7937 18.2089C35.8835 19.3104 30.9727 20.4115 26.0635 21.5143C26.0625 20.6548 26.0649 19.7958 26.0625 18.9374C26.0699 18.903 26.04 18.8431 26.1173 18.8341C29.8533 18.0038 33.5884 17.171 37.3241 16.3382C37.8292 16.2203 38.3732 16.1348 38.8017 15.9209C38.9771 15.8348 39.1488 15.698 39.0628 15.5502C38.9731 15.4211 38.7587 15.3497 38.5614 15.2961C38.0022 15.1578 37.3933 15.1311 36.7986 15.1206C35.8674 15.1246 34.9282 15.1962 34.0424 15.3828C31.3813 15.9654 28.7253 16.5551 26.0635 17.1358C26.0638 16.2131 26.0625 15.2911 26.0642 14.3687C27.9893 13.9465 30.0002 13.6906 32.0251 13.5451ZM42.9406 19.9008C43.5217 19.8556 44.1285 20.0183 44.4767 20.3124C44.8567 20.6162 44.9263 21.0541 44.6578 21.4009C44.3866 21.7608 43.7673 22.0129 43.1255 21.9999C42.535 22.0081 41.9631 21.7933 41.6724 21.475C41.41 21.195 41.3784 20.8362 41.5817 20.5381C41.8106 20.1938 42.3489 19.9428 42.9406 19.9008ZM42.8143 20.0948C42.4861 20.1424 42.1966 20.2627 41.9994 20.4334C41.883 20.5338 41.8021 20.6484 41.7619 20.7698C41.7217 20.8912 41.7232 21.0165 41.7662 21.1375C41.8449 21.3631 42.0633 21.5601 42.3737 21.6854C42.8452 21.879 43.5062 21.8682 43.9575 21.6558C44.4229 21.4503 44.644 21.056 44.4837 20.7145C44.3849 20.4835 44.1208 20.2868 43.7881 20.1724C43.4924 20.0748 43.1396 20.0465 42.8143 20.0948Z" fill="#FFAC33"/>
<path d="M42.4113 20.3415C42.7141 20.3404 43.0179 20.3412 43.321 20.3408C43.4924 20.3423 43.6812 20.3673 43.8029 20.4496C43.9248 20.5356 43.9349 20.6612 43.9013 20.7691C43.8822 20.8405 43.7817 20.8827 43.7088 20.9324C43.7719 20.9677 43.8533 21.0004 43.8684 21.0577C43.9033 21.1671 43.8664 21.2817 43.9225 21.3888C43.9578 21.4268 43.9937 21.465 43.9964 21.5101C43.8707 21.5124 43.7454 21.511 43.6197 21.5122C43.535 21.3875 43.5986 21.2477 43.5455 21.1195C43.5246 21.0672 43.4379 21.0346 43.3556 21.0363C43.1506 21.0311 42.9446 21.0346 42.7406 21.0346C42.7373 21.1938 42.7477 21.3533 42.7343 21.5122C42.6273 21.5109 42.5203 21.511 42.4133 21.5124C42.4076 21.1216 42.4113 20.7315 42.4113 20.3415ZM42.74 20.527V20.8505C42.9231 20.8514 43.1066 20.8522 43.2904 20.851C43.3815 20.8505 43.4873 20.8398 43.5465 20.7915C43.5764 20.7606 43.5926 20.7252 43.5935 20.6891C43.5944 20.653 43.5799 20.6173 43.5515 20.5858C43.5041 20.5367 43.4043 20.5316 43.3223 20.5285C43.1281 20.5247 42.9339 20.527 42.74 20.527Z" fill="#FFAC33"/>
</svg>
