<svg width="94" height="22" viewBox="0 0 94 22" fill="none" xmlns="http://www.w3.org/2000/svg">
<path fill-rule="evenodd" clip-rule="evenodd" d="M90.5758 2.75765C89.7014 1.88032 88.6619 1.18492 87.5173 0.711604C86.3726 0.238292 85.1455 -0.00355254 83.9069 3.9432e-05H10.095C4.89483 3.9432e-05 0.664062 4.22338 0.664062 9.41563V12.5854C0.664062 15.0998 1.64485 17.4645 3.42613 19.2424C4.30037 20.1197 5.3398 20.8151 6.48437 21.2885C7.62893 21.7618 8.85594 22.0036 10.0945 22H83.9064C85.145 22.0036 86.3721 21.7617 87.5168 21.2884C88.6614 20.8151 89.7009 20.1197 90.5753 19.2424C91.4534 18.3708 92.1497 17.3336 92.6239 16.1908C93.098 15.0481 93.3405 13.8226 93.3374 12.5854V9.41563C93.3407 8.1783 93.0983 6.95262 92.6242 5.80971C92.1502 4.66679 91.4539 3.62937 90.5758 2.75765ZM92.2506 12.5873C92.2506 17.1104 88.5577 20.7908 84.0193 20.7908H9.98256C7.7842 20.7908 5.71761 19.9373 4.16271 18.3879C2.60781 16.8384 1.75185 14.7788 1.75185 12.5873V9.41315C1.75185 7.22223 2.60831 5.16157 4.16271 3.61262C4.92632 2.84799 5.83368 2.24202 6.83252 1.82961C7.83136 1.4172 8.90194 1.20651 9.98256 1.20968H84.0189C86.2172 1.20968 88.2843 2.06317 89.8392 3.61262C90.6055 4.37139 91.2133 5.27496 91.6272 6.27077C92.041 7.26659 92.2528 8.33476 92.2501 9.41315V12.5873H92.2506Z" fill="#FFAC33"/>
<path fill-rule="evenodd" clip-rule="evenodd" d="M25.3256 7.04487V5.00701H22.4694V7.04487H25.3256ZM25.3271 15.496V8.3625H22.4684V15.496H25.3271ZM17.196 11.5506V4.99512H20.0625V15.5049H17.4773L12.6913 8.31098C12.3074 7.77501 11.8977 8.03062 11.8724 8.51507V15.5044H9.00586V4.99512H12.1285L16.659 11.8572C16.8373 12.1118 17.1702 12.0613 17.196 11.5506ZM27.7637 8.36646V15.4916H30.6145V11.1657C30.6145 8.62107 34.178 8.67209 34.178 11.2672V15.4916H37.0287V10.3008C37.0287 9.07927 35.6031 7.90826 34.0764 7.90826C32.9054 7.90826 31.0731 8.56955 30.6149 9.07877V8.36646H27.7637ZM55.4195 8.35804V15.5015H58.2871V11.1642C58.2871 8.61314 61.8714 8.66417 61.8714 11.2662V15.5015H64.739V10.2968C64.739 9.07233 63.305 7.89885 61.7689 7.89885C60.5915 7.89885 58.7483 8.56212 58.2871 9.07283V8.35853H55.4195V8.35804ZM39.663 15.5049V8.35903H37.5627V7.5422H39.663V6.57231H42.533V7.5422H44.6338V8.35903H42.533V15.5049H39.663ZM86.4368 5.48898C85.77 5.48898 85.2351 6.01504 85.2351 6.66197C85.2351 7.3193 85.77 7.84486 86.4368 7.84486C87.0996 7.84486 87.6345 7.3193 87.6345 6.66197C87.6345 6.01455 87.0996 5.48898 86.4368 5.48898ZM86.4368 7.66307C86.3056 7.66354 86.1756 7.6379 86.0544 7.58765C85.9332 7.5374 85.8232 7.46354 85.7308 7.37038C85.6384 7.27721 85.5655 7.1666 85.5163 7.04498C85.467 6.92336 85.4425 6.79316 85.4441 6.66197C85.4441 6.11708 85.8785 5.67078 86.4368 5.67078C86.995 5.67078 87.4255 6.11708 87.4255 6.66197C87.4255 7.21676 86.995 7.66307 86.4368 7.66307Z" fill="#FFAC33"/>
<path fill-rule="evenodd" clip-rule="evenodd" d="M86.9258 7.2039C86.8089 7.02706 86.6915 6.8527 86.5845 6.66893C86.7743 6.6293 86.8951 6.50794 86.8951 6.32119C86.8951 6.12454 86.7569 6.00962 86.5157 6.00962H86.003V7.32576C86.0476 7.32229 86.0922 7.31586 86.1372 7.31586C86.1818 7.31586 86.2264 7.32229 86.271 7.32576V6.70855H86.3339L86.692 7.32576C86.7435 7.32229 86.7946 7.31586 86.8466 7.31586C86.8981 7.31586 86.9501 7.32229 87.0011 7.32576L86.9258 7.2039ZM86.2715 6.64813V6.13247H86.378C86.4884 6.13247 86.5984 6.14237 86.5984 6.37222C86.5984 6.57283 86.4959 6.66447 86.2715 6.64813ZM81.5037 7.93306C78.8665 7.93306 76.7281 9.67669 76.7281 11.828C76.7281 13.9793 78.866 15.7229 81.5037 15.7229C84.1415 15.7229 86.2794 13.9788 86.2794 11.828C86.2794 9.67718 84.141 7.93306 81.5037 7.93306ZM82.9318 13.5592C82.9318 14.3473 82.2923 14.9853 81.5037 14.9853C80.7151 14.9853 80.0766 14.3473 80.0766 13.5592V10.1983C80.0766 9.41068 80.7151 8.77218 81.5037 8.77218C82.2923 8.77218 82.9318 9.41068 82.9318 10.1983V13.5592ZM53.893 11.9033C53.894 11.878 53.894 11.8528 53.894 11.828C53.894 9.68065 51.7645 7.93999 49.1387 7.93999C46.5123 7.93999 44.3828 9.68065 44.3828 11.828C44.3828 13.9753 46.5118 15.7165 49.1387 15.7165C51.2746 15.7165 53.0831 14.5638 53.683 12.9777L50.5648 12.9737V13.5592C50.5648 13.9376 50.4145 14.3004 50.1469 14.568C49.8794 14.8355 49.5165 14.9858 49.1382 14.9858C48.7598 14.9858 48.3969 14.8355 48.1294 14.568C47.8619 14.3004 47.7116 13.9376 47.7116 13.5592V11.9038H53.893V11.9033ZM47.7135 10.1993C47.7135 9.82131 47.8637 9.45883 48.1309 9.19157C48.3982 8.92431 48.7607 8.77416 49.1387 8.77416C49.5166 8.77416 49.8791 8.92431 50.1464 9.19157C50.4136 9.45883 50.5638 9.82131 50.5638 10.1993V10.8358H47.7135V10.1993ZM72.3547 4.99316V8.87224C71.5353 8.28525 70.4594 8.05591 69.9978 8.10693C69.284 8.18618 66.3099 8.00488 66.3099 11.8324C66.3099 15.3539 68.1541 15.7625 69.9978 15.7625C70.8696 15.7625 71.6379 15.4564 72.3547 14.9972V15.5069H75.2232V4.99316H72.3547ZM72.3547 13.9198C70.4585 15.604 69.4851 14.0219 69.4851 12.7969V10.9596C69.4851 9.01985 71.5854 8.86679 72.3547 10.0408V13.9198Z" fill="#FFAC33"/>
</svg>
