<svg width="114" height="22" viewBox="0 0 114 22" fill="none" xmlns="http://www.w3.org/2000/svg">
<path d="M110.794 17.7708L104.213 12.0496L97.6398 17.7708H94.9317L102.843 10.8584L95.6177 4.5752H98.3258L104.213 9.69962L110.101 4.5752H112.807L105.587 10.8573L113.5 17.7708H110.794ZM59.5153 17.7685L51.595 10.8573L58.8202 4.5752H56.1121L50.2229 9.70078L44.3392 4.5752H41.6383L48.8599 10.8573L40.9414 17.7685H43.6531L50.2265 12.0496L56.8054 17.7685H59.5153Z" fill="#FFAC33"/>
<path d="M74.5717 11.3568C74.1636 11.134 73.7091 10.9487 73.2212 10.8063C73.9699 10.5515 74.596 10.1708 75.0324 9.70525C75.4688 9.23967 75.699 8.70675 75.6982 8.16369C75.6982 7.31945 75.2126 4.57393 69.002 4.57393H60.6377V10.2627H57.8519C57.4909 10.5646 56.6694 11.2897 56.3571 11.5869H60.6377V17.7684L69.0039 17.7695C73.5354 17.7695 76.35 16.2962 76.35 13.9173C76.35 12.8787 75.738 11.9963 74.5717 11.3568ZM62.9504 5.95132H69.0039C70.6413 5.95132 73.3855 6.21269 73.3855 8.04804C73.3855 9.43584 71.7878 10.2627 69.0039 10.2627H62.9504V5.95132ZM69.002 16.3933H62.9486V11.5904H69.002C71.2967 11.5904 74.0427 11.9963 74.0427 13.8883C74.0427 16.0672 70.8851 16.3933 69.002 16.3933ZM87.2311 4.27093C81.4448 4.27093 77.4007 7.1055 77.4007 11.1648C77.4007 15.2299 81.4448 18.0621 87.2311 18.0621C93.012 18.0621 97.0452 15.2299 97.0452 11.1648C97.0452 7.1055 93.012 4.27093 87.2311 4.27093ZM87.2311 16.6662C82.8223 16.6662 79.7333 14.403 79.7333 11.1648C79.7333 7.92661 82.8223 5.66451 87.2311 5.66451C91.6327 5.66451 94.7036 7.92661 94.7036 11.1648C94.7036 14.403 91.6327 16.6662 87.2311 16.6662ZM5.62372 3.16301L5.60747 3.17226V3.17342C3.98736 4.19519 2.70129 5.4135 1.82436 6.75719C0.947434 8.10088 0.497221 9.54303 0.500016 10.9994C0.494886 13.407 1.72838 15.7486 4.0097 17.662C4.03317 17.6805 4.06928 17.6909 4.10178 17.6805C4.13247 17.6689 4.13427 17.6446 4.12163 17.6238C2.81272 15.031 9.50351 8.74657 12.9608 6.11207C12.9717 6.10282 12.9861 6.09241 12.9861 6.07969C12.9861 6.06466 12.9699 6.05309 12.9536 6.04384C7.13845 2.33612 5.58581 3.18383 5.60747 3.17226M29.7185 3.16301L29.7347 3.17226V3.17342C31.3547 4.19521 32.6405 5.41355 33.5172 6.75725C34.3938 8.10096 34.8436 9.54309 34.8404 10.9994C34.8455 13.407 33.612 15.7486 31.3307 17.662C31.3091 17.6805 31.2711 17.6909 31.2386 17.6805C31.2098 17.6689 31.2079 17.6446 31.2188 17.6238C32.5277 15.031 25.8423 8.74194 22.3868 6.10629C22.3742 6.09704 22.3615 6.08663 22.3615 6.07506C22.3615 6.05887 22.376 6.04731 22.394 6.03806C28.211 2.33034 29.7528 3.18383 29.7329 3.17226M17.6711 0C21.1357 0 23.9864 0.608316 26.615 1.60984C26.6475 1.62025 26.6566 1.64338 26.6439 1.6642C26.6313 1.68386 26.5952 1.68848 26.5609 1.6827C23.2371 1.22241 18.1838 3.0624 17.7072 3.24628C17.6964 3.25091 17.6856 3.25553 17.6711 3.25553C17.6549 3.25553 17.644 3.25091 17.6332 3.24628C16.3658 2.78021 11.6953 1.21201 8.75427 1.69426C8.72178 1.69889 8.68567 1.69542 8.67123 1.6746C8.66506 1.66483 8.66459 1.65396 8.66989 1.64399C8.6752 1.63401 8.68592 1.62558 8.70011 1.62025C11.3288 0.608316 14.2156 0 17.6711 0ZM17.6711 8.82174C17.691 8.82174 17.7126 8.83215 17.7253 8.83909C22.8634 11.3417 31.6575 17.529 28.9729 19.2788L28.9765 19.2764L28.9747 19.2788H28.9711C25.8457 21.036 21.8278 22.0034 17.6693 22C13.5103 22.0032 9.49198 21.0358 6.36574 19.2788C3.68654 17.529 12.4788 11.3417 17.6115 8.83909C17.626 8.83215 17.6494 8.82174 17.6711 8.82174Z" fill="#FFAC33"/>
</svg>
